# xmcd CD database file
#
# Track frame offsets:
#	187
#	26392
#	38767
#	51880
#	63302
#	76015
#	90077
#	110692
#	121410
#	141530
#
# Disc length: 2093 seconds
#
# Revision: 13
# Processed by: cddbd v1.5.1PL0 Copyright (c) Steve Scherf et al.
# Submitted via: CDex 1.51
#
DISCID=79082b0a
DTITLE=Wes Montgomery - A Day In The Life
DYEAR=1967
DGENRE=Jazz
TTITLE0=A day in the life
TTITLE1=Watch what happens
TTITLE2=When a man loves a woman
TTITLE3=California nights
TTITLE4=Angel
TTITLE5=Eleanor Rigby
TTITLE6=Willow weep for me
TTITLE7=Windy
TTITLE8=Trust in me
TTITLE9=The joker
EXTD=YEAR: 1967
EXTT0=
EXTT1=
EXTT2=
EXTT3=
EXTT4=
EXTT5=
EXTT6=
EXTT7=
EXTT8=
EXTT9=
PLAYORDER=
